<?xml version="1.0" encoding="utf-8"?>
<!-- Generator: Adobe Illustrator 24.1.3, SVG Export Plug-In . SVG Version: 6.00 Build 0)  -->
<svg version="1.1" id="レイヤー_1" xmlns="http://www.w3.org/2000/svg" xmlns:xlink="http://www.w3.org/1999/xlink" x="0px"
	 y="0px" viewBox="0 0 1528 779.7" style="enable-background:new 0 0 1528 779.7;" xml:space="preserve">
<style type="text/css">
	.st0{fill:#C17948;}
	.st1{fill:#666666;}
</style>
<g>
	<path class="st0" d="M764.9,115.8c6.2-3.2,13.1-5.1,20.6-5.1h29.2c2.3,0,4.6,0.3,6.8,0.7L757.1,0l-63.9,110.7h53.1
		C753.1,110.7,759.4,112.6,764.9,115.8z"/>
	<path class="st0" d="M825.2,117.9c-3.4-0.9-6.9-1.6-10.6-1.6h-29.2c-5.5,0-10.7,1.1-15.4,3.1c8.4,6.9,13.9,17.3,13.9,28.9v45.2
		c0,7.3-2.1,14.2-5.6,20.2c6.7,4.2,13.5,8,19.6,11.8c1.3,0.8,2.7,1.6,4.1,2.4h86.6L825.2,117.9z"/>
	<path class="st0" d="M745.9,155.9v17.3c0,16.2,13,27.9,28,37.8c2.6-4.9,4.1-10.5,4.1-16.7v-45.8c0-10-5.4-19.8-13.6-25.9
		C753.3,129.4,745.9,141.7,745.9,155.9z"/>
	<path class="st0" d="M800.7,233.4h-34.9c12.1,6.9,20.4,19.9,20.4,34.8V361h26c1,0,2-0.2,3-0.3l36.5-63.2v-0.2
		C851.7,263.3,824.3,246.8,800.7,233.4z"/>
	<path class="st0" d="M775,218.2c-2.9,3.7-6.2,7.1-10.3,9.6h26.4c-0.1-0.1-0.2-0.1-0.3-0.2C785.7,224.7,780.3,221.5,775,218.2z"/>
	<path class="st0" d="M783,366.7c-25.1,0-45.2-20.1-45.2-45.2v-46.4h5.6v46.4c0,21.1,16.3,38,37.1,39.3v-92.6
		c0-16.9-10.3-29.5-25.1-34.8h-85.3v77l87.1,150.8l54.6-94.6H783z"/>
	<path class="st0" d="M770.9,215.6c-16.2-10.5-30.6-23.3-30.6-42.5v-17.3c0-15.2,7.4-28.4,18.7-36.6c-3.9-1.8-8.2-2.9-12.8-2.9H690
		l-19.9,34.5v76.9h85.3C761.7,224.9,767,220.8,770.9,215.6z"/>
	<path class="st0" d="M856.7,288.8l32-55.4h-77.3C831.3,245.2,853,260.7,856.7,288.8z"/>
	<polygon class="st0" points="664.4,300.6 664.4,233.4 625.6,233.4 	"/>
	<polygon class="st0" points="664.4,227.9 664.4,160.6 625.6,227.9 	"/>
</g>
<g>
	<path class="st0" d="M74,640.9c-0.8-0.8-1.4-1.4-1.7-1.8c-0.4-0.4-0.8-0.9-1.2-1.4c-0.4-0.5-1-1.3-1.7-2.4s-1.7-2.6-3.2-4.6
		c-1.7-2.5-3.2-4.8-4.5-6.8c-1.3-2-2.6-4-4-6c-1.3-2-2.8-4-4.4-6c-1.6-2-3.4-4.3-5.6-6.8c-1.8-2-3.7-4-5.8-5.8
		c-2.1-1.8-4.3-2.9-6.6-3.4c-1.7-0.4-3-0.5-3.9-0.5c-0.8,0-1.8,0-3.1-0.1c0,5.8,0,10.9,0,15.2c0,4.3,0.1,7.9,0.1,10.9
		c0.1,2.9,0.2,5.3,0.3,7.4c0.1,2.1,0.6,3.8,1.5,5.1c0.7,1.2,2.1,2.4,4.2,3.6c2,1.2,4.9,1.9,8.6,2.1v1.3H0v-1.3
		c2.2-0.4,4.4-0.9,6.4-1.6c2.1-0.7,3.7-1.8,4.8-3.2c0.4-0.5,0.8-1.3,1.1-2.4c0.3-1.1,0.5-2.3,0.6-3.6c0.1-1.3,0.3-2.8,0.3-4.3
		c0.1-1.5,0.1-3,0.1-4.4c0-1.3,0-3,0.1-5.1c0-2.2,0.1-4.5,0.1-7.1c0-2.6,0.1-5.2,0.1-7.8c0-2.8,0-5.4,0-7.8V566c0-1.6,0-3.3-0.1-4.9
		c-0.1-1.7-0.1-3.2-0.3-4.7c-0.1-1.5-0.4-2.8-0.7-4c-0.3-1.2-0.7-2.1-1.3-2.6c-1.3-1.4-2.8-2.4-4.5-2.9c-1.7-0.5-3.7-0.9-6.1-1.3
		v-1.3c0.7,0,2.6,0,5.5,0c3,0,6.5,0,10.3-0.1c3.8,0,7.7-0.1,11.5-0.1s7,0,9.4,0c6,0,11.3,0.2,16,0.5c4.7,0.4,8.9,1.6,12.8,3.6
		c3.9,2.1,7.1,4.8,9.5,8.4c2.4,3.5,3.6,8,3.6,13.4c0,3.3-0.6,6.3-1.8,8.9c-1.2,2.6-2.8,5-4.8,7c-2,2-4.4,3.7-7,5.2
		c-2.7,1.4-5.5,2.6-8.5,3.6v0.4c1.5,0.8,3,2,4.4,3.5c1.4,1.5,2.8,3.2,4.2,5.1c2.3,3.4,4.8,7.1,7.6,11s5.2,7.4,7.3,10.5
		c3.3,4.7,6.5,8.1,9.7,10.2c3.1,2.2,6.8,3.5,11,4.2v1.3H74z M60.7,557.3c-2.2-3.5-5.5-6.3-9.8-8.3c-2.1-1-4.4-1.7-6.8-2.2
		c-2.4-0.4-4.8-0.7-7.5-0.7c-1.9,0-3.4,0.1-4.6,0.1c-1.2,0.1-2.1,0.2-2.7,0.3c-0.1,0.5-0.2,1-0.3,1.4c-0.1,0.4-0.2,0.9-0.2,1.5
		c0,0.6-0.1,1.5-0.1,2.6c-0.1,1.1-0.1,2.7-0.2,4.8c-0.1,3.1-0.2,6.7-0.2,10.6c0,3.9-0.1,7.7-0.1,11.4s0,6.9,0,9.7c0,2.7,0,4.4,0,5.1
		c3.7,0,7.1-0.2,10.3-0.5c3.2-0.3,6.2-1,9.2-1.9c2.9-0.9,5.3-2.1,7.4-3.6c2.1-1.5,3.7-3.2,5-5.2c1.3-1.9,2.3-4,2.9-6.2
		c0.6-2.2,0.9-4.6,0.9-7C64,564.8,62.9,560.8,60.7,557.3z"/>
	<path class="st0" d="M220.4,640.9h-82.2v-1.3c2.2-0.4,4.3-0.9,6.2-1.7c1.9-0.8,3.5-1.9,4.8-3.4c0.4-0.5,0.8-1.3,1.1-2.4
		c0.3-1,0.5-2.2,0.7-3.6s0.4-2.7,0.5-4.2c0.1-1.5,0.1-2.9,0.1-4.4c0-1.3,0-3,0.1-5.1c0-2.2,0.1-4.5,0.1-7.1c0-2.6,0.1-5.2,0.1-7.8
		c0-2.8,0-5.4,0-7.8V566c0-1.6,0-3.3-0.1-5c-0.1-1.7-0.1-3.3-0.3-4.8c-0.1-1.5-0.4-2.9-0.7-4.1c-0.3-1.2-0.7-2.1-1.3-2.6
		c-1.3-1.4-2.8-2.4-4.3-2.7c-1.5-0.4-3.5-0.8-5.9-1.1v-1.3h74.1l9.1,22.1l-1.3,0.7c-7.2-9-14-15.1-20.4-18.3
		c-1.5-0.7-4.3-1.3-8.5-1.9c-4.1-0.5-9.1-0.8-15-0.8c-1.9,0-3.8,0.1-5.8,0.2c-2,0.1-3.5,0.3-4.4,0.5c-0.2,1.4-0.3,4.4-0.5,8.9
		c-0.1,4.5-0.2,9.7-0.2,15.6c0,3.4,0,6.3,0,8.6s0,4.2,0.1,5.7c0.1,1.5,0.1,2.6,0.1,3.4c0,0.7,0,1.2,0,1.5c0.4,0,1.3,0,2.7,0
		c1.3,0,2.9-0.1,4.6-0.1c1.7-0.1,3.5-0.2,5.2-0.3c1.8-0.1,3.2-0.3,4.4-0.6c2.7-0.6,4.9-1.5,6.7-2.6c1.8-1.1,3.2-2.4,4.4-3.9
		c1.1-1.5,2-3.3,2.7-5.3c0.7-2,1.3-4.3,1.8-6.8h1.6v42.3h-1.6c-0.7-2.9-1.8-5.8-3.3-8.9c-1.5-3-3-5.3-4.6-6.8
		c-1.4-1.3-3.2-2.3-5.2-3.1c-2-0.8-4.4-1.3-7.1-1.5c-1.3-0.1-2.5-0.2-3.4-0.2c-0.9,0-1.8-0.1-2.7-0.1c-0.8,0-1.7,0-2.7,0
		c-0.9,0-2.1,0-3.5,0c-0.2,1.3-0.3,3.1-0.3,5.5c0,2.4,0,4.9,0,7.5c0,1.2,0,2.5,0,4c0,1.5,0,3,0,4.6c0,1.4,0,2.8,0.1,4.1
		c0.1,1.3,0.1,2.4,0.1,3.3c0.1,2.9,0.2,5.6,0.5,8.1c0.2,2.6,0.7,4.5,1.5,5.7c0.8,1.3,2.7,2.2,5.8,2.7c3,0.5,6.4,0.8,9.9,0.8
		c1.5,0,3.5,0,5.8-0.1c2.4-0.1,4.8-0.3,7.4-0.7c2.9-0.4,5.5-1,7.9-2.1s4.7-2.5,7-4.4s4.4-4.2,6.5-6.9c2.1-2.7,4.3-6,6.5-9.9l1.5,0.4
		L220.4,640.9z"/>
	<path class="st0" d="M270.9,640.9v-1.3c2.2-0.4,4.3-0.9,6.2-1.7c1.9-0.8,3.6-2,4.9-3.5c0.4-0.5,0.8-1.3,1-2.3
		c0.2-1,0.4-2.1,0.5-3.5s0.2-2.7,0.3-4.2c0.1-1.5,0.1-2.9,0.1-4.4c0-1.3,0-3,0.1-5.1c0-2.2,0.1-4.5,0.1-7.1c0-2.6,0.1-5.2,0.1-7.8
		c0-2.8,0-5.4,0-7.8V566c0-1.6,0-3.2,0-4.8s-0.1-3.1-0.2-4.5c-0.1-1.4-0.3-2.6-0.6-3.8c-0.3-1.1-0.7-2-1.2-2.6
		c-1.2-1.5-2.8-2.6-4.6-3.3c-1.8-0.7-3.9-1.1-6.2-1.4v-1.3h40.1v1.3c-1.9,0.3-3.9,0.8-6,1.5c-2.2,0.7-3.8,2.2-5,4.3
		c-0.8,1.5-1.2,3.4-1.3,5.8c-0.1,2.3-0.1,4.5-0.2,6.6c0,2.2,0,4.5-0.1,6.6c0,2.2-0.1,4.4-0.1,6.6c0,2.2,0,4.6,0,7c0,2.3,0,4.9,0,7.7
		V622c0,2.6,0.1,5.1,0.1,7.5c0.1,2.4,0.5,4.1,1.2,5.1c1.1,1.5,2.8,2.7,5.1,3.5c2.3,0.8,4.4,1.3,6.3,1.5v1.3H270.9z"/>
	<path class="st0" d="M430.5,640.9c-0.4-0.2-0.8-0.4-1.2-0.7s-0.9-0.8-1.5-1.4c-5.7-6.6-11.2-12.9-16.3-18.9c-5.1-6-10.5-12-16-18.1
		c-2.3-2.6-3.9-4.2-4.8-4.8c-0.8-0.6-1.6-0.9-2.2-0.9c-0.7,0-1.2,0.1-1.4,0.5s-0.5,0.8-0.7,1.5c0,4.7,0,9.1,0,13.3
		c0,4.1,0.1,7.7,0.1,10.6c0.1,2.6,0.3,5,0.5,7.3c0.3,2.2,0.8,3.9,1.7,5.1c0.6,0.9,1.5,1.7,2.6,2.3c1.1,0.6,2.2,1.1,3.5,1.5
		c1.3,0.4,2.5,0.7,3.7,1c1.2,0.2,2.3,0.4,3.1,0.5v1.3h-43.1v-1.3c2.2-0.4,4.4-0.9,6.4-1.6c2.1-0.7,3.6-1.7,4.7-2.9
		c0.4-0.5,0.8-1.3,1.1-2.4c0.3-1.1,0.5-2.3,0.6-3.7c0.1-1.4,0.2-2.9,0.3-4.4c0-1.6,0.1-3.1,0.1-4.5c0-1.3,0-3,0.1-5.1
		c0-2.2,0.1-4.5,0.1-7c0-2.6,0-5.2,0-7.9c0-2.8,0-5.4,0-7.8V566c0-3.4-0.1-6.5-0.3-9.4c-0.2-2.9-0.8-4.9-1.8-6.2
		c-1.2-1.5-2.8-2.6-4.6-3.4c-1.8-0.7-3.8-1.2-6.2-1.5v-1.3h41.6v1.3c-1.7,0.2-3.4,0.4-5,0.7c-1.6,0.3-3,1-4.3,2s-2.3,2.6-3.2,4.6
		c-0.8,2.1-1.3,5-1.4,8.7c-0.1,2.1-0.2,4-0.2,5.8c0,1.8-0.1,3.8-0.1,6.2s0,5.1,0,8.5c0,3.2,0,7.3,0,12.4c1.6-1,3.8-2.7,6.5-5
		c2.7-2.4,5.6-5,8.6-8c3-2.9,6-6,8.9-9.1c2.9-3.1,5.5-5.9,7.7-8.2c1.5-1.8,2.9-3.6,4.1-5.5c1.2-1.9,1.8-3.6,1.8-5.1
		c0-2.6-0.9-4.5-2.7-5.6c-1.8-1.2-3.8-1.9-6.2-2.3v-1.3h36v1.3c-4.6,0.4-9.2,2.4-13.8,5.8c-4.7,3.4-9.4,7.3-14.2,11.8
		c-1.9,1.7-3.8,3.5-5.8,5.5c-2,2-3.9,3.9-5.8,5.9c-1.9,2-3.8,3.9-5.6,5.7c-1.8,1.8-3.5,3.6-5,5.2c0.7,0.9,2.4,2.8,5,5.8
		c2.6,3,5.7,6.5,9.3,10.5c3.6,4,7.4,8.3,11.5,12.9c4.1,4.6,8,8.9,11.7,13.1c0.9,1.1,1.9,2.2,3.1,3.2c1.2,1.1,2.3,2,3.4,2.9
		c1.1,0.8,2,1.6,2.8,2.2c0.8,0.6,1.3,1,1.6,1.1c1.2,0.4,2.7,0.9,4.8,1.3c2,0.4,4.3,0.8,6.8,0.9v1.3H430.5z"/>
	<path class="st0" d="M545.3,640.9v-1.3c0.3,0,0.9-0.1,1.9-0.3c1-0.2,2.1-0.5,3.2-0.9s2.1-1.1,3-1.9c0.8-0.8,1.3-1.8,1.3-3.1
		c0-0.8-0.3-2.1-0.7-4c-0.5-1.8-1.2-4.1-2.1-6.7c-0.9-2.6-1.9-5.6-3.1-8.8s-2.4-6.6-3.8-10.1h-35.7c-1.3,3.4-2.6,6.6-3.9,9.7
		c-1.3,3.1-2.5,6.2-3.8,9.3c-1.9,4.8-2.8,8.2-2.8,10.2c0,1.2,0.4,2.1,1.1,2.9s1.6,1.4,2.7,1.9c1.1,0.5,2.3,0.9,3.6,1.1
		c1.3,0.2,2.5,0.4,3.7,0.6v1.3h-28.6v-1.5c2.3-0.3,4.3-0.9,6-1.9c1.7-1,2.6-1.7,2.9-2c0.6-0.6,1.7-2.1,3.1-4.4
		c1.4-2.3,3.2-5.8,5.2-10.3c1.9-4.2,4-9,6.3-14.4c2.3-5.4,4.7-10.9,7.2-16.6c2.5-5.7,4.9-11.4,7.3-17.2c2.4-5.8,4.7-11.2,6.8-16.2
		l-1.3-3c1.6-0.7,3.1-1.6,4.4-2.6c1.3-1,2.4-2,3.4-3.1c1-1.1,1.8-2.1,2.5-3.1c0.7-1,1.2-1.8,1.5-2.4h1.1c2.8,7.4,5.4,14.5,7.9,21.1
		c2.5,6.7,4.9,13.1,7.2,19.3c2.3,6.2,4.5,12.1,6.6,17.9c2.1,5.8,4.3,11.5,6.4,17.1c1,2.8,1.9,5.1,2.7,6.9c0.8,1.8,1.8,3.9,2.9,6.2
		c0.2,0.4,0.6,1,1.2,1.9c0.6,0.9,1.5,1.8,2.5,2.7c1,1,2.3,1.8,3.8,2.5c1.5,0.7,3.3,1.1,5.4,1.2v1.6H545.3z M527.7,559.6
		c-0.5,1.2-1.3,3-2.4,5.5c-1,2.5-2.3,5.5-3.8,9.1c-1.5,3.6-3.2,7.6-5,12.1s-3.8,9.4-6,14.7H544c-1.5-4-3.1-8-4.6-12.1
		c-1.6-4-3.1-7.9-4.6-11.6c-1.5-3.7-2.8-7.1-4-10.2C529.5,564.1,528.5,561.5,527.7,559.6z"/>
	<path class="st0" d="M756.7,626c-1.8,3.4-4.2,6.3-7.3,8.7c-3.1,2.4-6.8,4.2-11.1,5.4s-9,1.7-14.1,1.7c-4.4,0-8.1-0.3-11.3-0.8
		c-3.1-0.5-5.7-1.2-7.8-1.9c-2-0.8-3.6-1.5-4.6-2.1c-1-0.6-1.7-0.9-1.9-0.9c-0.3,0-0.9,0.5-1.7,1.6c-0.9,1.1-1.7,2.1-2.4,3.1h-1.2
		l-0.4-26.7h1.3c0.8,2.4,1.8,4.8,3.1,7c1.3,2.3,2.6,4.4,4.1,6.4s3,3.8,4.7,5.3c1.7,1.5,3.3,2.7,4.8,3.5c1.5,0.8,3.5,1.6,6,2.4
		c2.5,0.8,4.9,1.2,7.3,1.2c6.6,0,12-1.8,16.1-5.4c4.1-3.6,6.2-8.5,6.2-14.7c0-2.5-0.4-4.7-1.2-6.6s-1.9-3.5-3.3-4.9
		c-1.4-1.4-3-2.6-4.9-3.6c-1.9-1-3.9-1.9-6-2.7c-2.1-0.8-4-1.5-5.6-2c-1.6-0.5-3.1-1-4.5-1.5c-1.4-0.5-2.8-1-4.3-1.5
		c-1.5-0.5-3.3-1.1-5.3-2c-2.3-0.9-4.6-2.1-6.7-3.7c-2.2-1.6-4-3.4-5.6-5.5c-1.6-2.1-2.9-4.4-3.9-7c-1-2.6-1.5-5.3-1.5-8.1
		c0-4.8,0.9-9,2.6-12.5c1.8-3.5,4.1-6.4,7.1-8.7c3-2.3,6.4-4,10.3-5.2c3.9-1.1,8-1.7,12.3-1.7c4,0,7.5,0.3,10.3,1
		c2.9,0.7,5.2,1.4,7.1,2.2c1.8,0.8,3.2,1.5,4.2,2.2c0.9,0.7,1.5,1,1.5,1c0.3,0,0.8-0.5,1.7-1.6c0.9-1.1,1.6-2.2,2.4-3.2h1.5v24.8
		H753c-1.1-3-2.5-5.9-4.2-8.8c-1.7-2.9-3.7-5.5-5.9-7.8c-2.2-2.3-4.8-4.1-7.7-5.6c-2.9-1.4-6-2.1-9.5-2.1c-2.8,0-5.4,0.4-7.8,1.2
		c-2.5,0.8-4.6,2-6.4,3.6c-1.8,1.6-3.3,3.6-4.3,6c-1,2.4-1.5,5.1-1.5,8.1c0,4.7,1.4,8.5,4.3,11.4c2.9,2.9,6.6,5.1,11.1,6.8
		c1.8,0.7,3.5,1.3,5,1.9c1.6,0.5,3.1,1.1,4.6,1.5c1.5,0.5,3.1,1,4.6,1.5c1.6,0.5,3.2,1.1,4.9,1.7c6.1,2.2,10.8,5.5,14.1,9.7
		c3.3,4.3,5,9.6,5,15.9C759.3,618.8,758.4,622.6,756.7,626z"/>
	<path class="st0" d="M861.6,640.9v-1.3c0.3,0,0.9-0.1,1.9-0.3c1-0.2,2.1-0.5,3.2-0.9c1.1-0.4,2.1-1.1,3-1.9
		c0.8-0.8,1.3-1.8,1.3-3.1c0-0.8-0.3-2.1-0.7-4c-0.5-1.8-1.2-4.1-2.1-6.7c-0.9-2.6-1.9-5.6-3.1-8.8s-2.4-6.6-3.8-10.1h-35.7
		c-1.3,3.4-2.6,6.6-3.9,9.7c-1.3,3.1-2.5,6.2-3.8,9.3c-1.9,4.8-2.8,8.2-2.8,10.2c0,1.2,0.4,2.1,1.1,2.9s1.6,1.4,2.7,1.9
		c1.1,0.5,2.3,0.9,3.6,1.1c1.3,0.2,2.5,0.4,3.7,0.6v1.3h-28.6v-1.5c2.3-0.3,4.3-0.9,6-1.9c1.7-1,2.6-1.7,2.9-2
		c0.6-0.6,1.7-2.1,3.1-4.4c1.4-2.3,3.2-5.8,5.2-10.3c1.9-4.2,4-9,6.3-14.4c2.3-5.4,4.7-10.9,7.2-16.6c2.5-5.7,4.9-11.4,7.3-17.2
		c2.4-5.8,4.7-11.2,6.8-16.2l-1.3-3c1.6-0.7,3.1-1.6,4.4-2.6c1.3-1,2.4-2,3.4-3.1c1-1.1,1.8-2.1,2.5-3.1c0.7-1,1.2-1.8,1.5-2.4h1.1
		c2.8,7.4,5.4,14.5,7.9,21.1c2.5,6.7,4.9,13.1,7.2,19.3c2.3,6.2,4.5,12.1,6.6,17.9c2.1,5.8,4.3,11.5,6.4,17.1c1,2.8,1.9,5.1,2.7,6.9
		c0.8,1.8,1.8,3.9,2.9,6.2c0.2,0.4,0.6,1,1.2,1.9c0.6,0.9,1.5,1.8,2.5,2.7c1,1,2.3,1.8,3.8,2.5c1.5,0.7,3.3,1.1,5.4,1.2v1.6H861.6z
		 M844,559.6c-0.5,1.2-1.3,3-2.4,5.5c-1,2.5-2.3,5.5-3.8,9.1c-1.5,3.6-3.2,7.6-5,12.1c-1.8,4.5-3.8,9.4-6,14.7h33.4
		c-1.5-4-3.1-8-4.6-12.1c-1.6-4-3.1-7.9-4.6-11.6c-1.5-3.7-2.8-7.1-4-10.2C845.8,564.1,844.8,561.5,844,559.6z"/>
	<path class="st0" d="M1005.8,640.9c-0.4-0.2-0.8-0.4-1.2-0.7s-0.9-0.8-1.5-1.4c-5.7-6.6-11.2-12.9-16.3-18.9
		c-5.2-6-10.5-12-16-18.1c-2.3-2.6-3.9-4.2-4.8-4.8c-0.9-0.6-1.6-0.9-2.2-0.9c-0.7,0-1.2,0.1-1.4,0.5c-0.2,0.3-0.5,0.8-0.7,1.5
		c0,4.7,0,9.1,0,13.3c0,4.1,0,7.7,0.1,10.6c0.1,2.6,0.3,5,0.5,7.3c0.3,2.2,0.8,3.9,1.7,5.1c0.6,0.9,1.5,1.7,2.6,2.3
		c1.1,0.6,2.2,1.1,3.5,1.5c1.3,0.4,2.5,0.7,3.7,1c1.2,0.2,2.3,0.4,3.2,0.5v1.3h-43.1v-1.3c2.2-0.4,4.4-0.9,6.4-1.6
		c2.1-0.7,3.6-1.7,4.7-2.9c0.4-0.5,0.8-1.3,1.1-2.4c0.3-1.1,0.5-2.3,0.6-3.7c0.1-1.4,0.2-2.9,0.3-4.4c0.1-1.6,0.1-3.1,0.1-4.5
		c0-1.3,0-3,0.1-5.1c0.1-2.2,0.1-4.5,0.1-7c0-2.6,0-5.2,0-7.9c0-2.8,0-5.4,0-7.8V566c0-3.4-0.1-6.5-0.3-9.4
		c-0.2-2.9-0.8-4.9-1.8-6.2c-1.3-1.5-2.8-2.6-4.6-3.4c-1.8-0.7-3.9-1.2-6.2-1.5v-1.3h41.6v1.3c-1.7,0.2-3.4,0.4-5,0.7
		c-1.6,0.3-3.1,1-4.3,2c-1.3,1-2.3,2.6-3.2,4.6c-0.9,2.1-1.3,5-1.4,8.7c-0.1,2.1-0.2,4-0.2,5.8c-0.1,1.8-0.1,3.8-0.1,6.2
		s0,5.1,0,8.5c0,3.2,0,7.3,0,12.4c1.6-1,3.8-2.7,6.5-5c2.7-2.4,5.6-5,8.6-8c3-2.9,6-6,8.9-9.1c3-3.1,5.5-5.9,7.7-8.2
		c1.5-1.8,2.9-3.6,4.1-5.5c1.2-1.9,1.8-3.6,1.8-5.1c0-2.6-0.9-4.5-2.7-5.6c-1.8-1.2-3.8-1.9-6.2-2.3v-1.3h36v1.3
		c-4.6,0.4-9.2,2.4-13.8,5.8c-4.7,3.4-9.4,7.3-14.2,11.8c-1.9,1.7-3.8,3.5-5.8,5.5c-2,2-3.9,3.9-5.8,5.9c-1.9,2-3.8,3.9-5.6,5.7
		c-1.8,1.8-3.5,3.6-5,5.2c0.7,0.9,2.4,2.8,5,5.8c2.6,3,5.7,6.5,9.3,10.5c3.6,4,7.4,8.3,11.5,12.9c4.1,4.6,8,8.9,11.7,13.1
		c0.9,1.1,1.9,2.2,3.1,3.2c1.2,1.1,2.3,2,3.4,2.9c1.1,0.8,2,1.6,2.8,2.2c0.8,0.6,1.3,1,1.6,1.1c1.2,0.4,2.8,0.9,4.8,1.3
		s4.3,0.8,6.8,0.9v1.3H1005.8z"/>
	<path class="st0" d="M1164,548.2c-1.9,1.3-3.4,3.2-4.5,5.8c-0.3,0.6-0.5,1.7-0.7,3.1c-0.2,1.4-0.4,3.1-0.6,5
		c-0.2,1.9-0.3,3.9-0.4,6c-0.1,2.1-0.1,4.2-0.1,6.3c-0.1,3.8-0.2,8.1-0.3,12.9c-0.1,4.7-0.3,10.1-0.5,16.1c-0.1,1.7-0.2,3.8-0.3,6.4
		c-0.1,2.6-0.6,5.3-1.3,8.2c-0.7,2.9-1.9,5.8-3.4,8.7c-1.6,2.9-3.8,5.5-6.6,7.9c-2.9,2.4-6.5,4.3-11,5.6c-4.5,1.4-10,2.1-16.5,2.1
		c-6.4,0-11.9-0.7-16.3-2c-4.4-1.3-8.1-3.2-10.9-5.4c-2.9-2.3-5.1-4.8-6.6-7.5c-1.6-2.7-2.7-5.4-3.5-8.1c-0.8-2.6-1.2-5.1-1.3-7.3
		c-0.1-2.2-0.2-3.8-0.2-4.9c0-2.5,0-5.8,0.1-9.8c0-4,0.1-8.5,0.1-13.4V566c0-1.6,0-3.2,0-4.8s-0.1-3.1-0.2-4.5
		c-0.1-1.4-0.3-2.6-0.6-3.8c-0.3-1.1-0.7-2-1.2-2.6c-1.3-1.5-2.8-2.6-4.6-3.3c-1.8-0.7-3.9-1.1-6.2-1.4v-1.3h40v1.3
		c-1.3,0.2-2.6,0.4-4,0.8c-1.4,0.4-2.7,0.9-3.9,1.7c-1.2,0.8-2.2,1.8-3,3.1c-0.8,1.3-1.3,3.1-1.3,5.1c-0.1,2.3-0.2,4.4-0.2,6.2
		c-0.1,1.8-0.1,3.5-0.1,5.2c0,1.7,0,3.5,0,5.4c0,1.8,0,3.9,0,6.3c0,3,0,5.8,0,8.2c0,2.4,0,4.7,0,6.9c0,2,0,4,0.1,6
		c0,1.9,0.1,4,0.1,6.1c0.1,4.7,0.8,9.1,2.1,12.9c1.3,3.9,3.2,7.2,5.6,9.9c2.4,2.7,5.4,4.8,8.9,6.3c3.5,1.5,7.5,2.2,12,2.2
		c5.1,0,9.4-0.6,12.9-1.7c3.5-1.2,6.5-2.8,8.9-4.8c2.4-2,4.2-4.4,5.6-7.1c1.4-2.7,2.4-5.5,3.1-8.6c0.7-3,1.1-6.2,1.3-9.3
		c0.2-3.2,0.3-6.3,0.3-9.3c0-2.4,0-4.6,0-6.6c0-2,0-3.8,0-5.5c0-1.8,0-3.5,0-5.2c0-1.8,0-3.6,0-5.5c0-1.8,0-3.6-0.1-5.5
		c-0.1-1.9-0.1-3.7-0.2-5.4c-0.1-1.7-0.2-3.3-0.4-4.8c-0.2-1.5-0.4-2.7-0.8-3.6c-0.9-2.5-2.4-4.5-4.6-6.1c-2.2-1.6-5.4-2.7-9.7-3.3
		v-1.3h33.3v1.3C1168.5,546.1,1165.9,546.9,1164,548.2z"/>
	<path class="st0" d="M1284.7,640.9c-0.8-0.8-1.4-1.4-1.7-1.8c-0.4-0.4-0.8-0.9-1.2-1.4c-0.4-0.5-1-1.3-1.7-2.4
		c-0.7-1-1.7-2.6-3.2-4.6c-1.7-2.5-3.2-4.8-4.5-6.8c-1.3-2-2.6-4-4-6c-1.3-2-2.8-4-4.4-6c-1.6-2-3.4-4.3-5.6-6.8
		c-1.8-2-3.7-4-5.8-5.8c-2.1-1.8-4.3-2.9-6.6-3.4c-1.7-0.4-3-0.5-3.9-0.5c-0.8,0-1.8,0-3.1-0.1c0,5.8,0,10.9,0,15.2
		c0,4.3,0.1,7.9,0.1,10.9c0.1,2.9,0.2,5.3,0.3,7.4c0.1,2.1,0.6,3.8,1.5,5.1c0.7,1.2,2.1,2.4,4.2,3.6c2,1.2,4.9,1.9,8.6,2.1v1.3h-43
		v-1.3c2.2-0.4,4.4-0.9,6.4-1.6c2.1-0.7,3.7-1.8,4.8-3.2c0.4-0.5,0.8-1.3,1.1-2.4c0.3-1.1,0.5-2.3,0.6-3.6c0.1-1.3,0.3-2.8,0.3-4.3
		c0.1-1.5,0.1-3,0.1-4.4c0-1.3,0-3,0.1-5.1c0-2.2,0.1-4.5,0.1-7.1c0-2.6,0.1-5.2,0.1-7.8c0-2.8,0-5.4,0-7.8V566c0-1.6,0-3.3-0.1-4.9
		c-0.1-1.7-0.1-3.2-0.3-4.7c-0.1-1.5-0.4-2.8-0.7-4c-0.3-1.2-0.7-2.1-1.3-2.6c-1.3-1.4-2.8-2.4-4.5-2.9c-1.7-0.5-3.7-0.9-6.1-1.3
		v-1.3c0.7,0,2.6,0,5.5,0c3,0,6.5,0,10.3-0.1c3.8,0,7.7-0.1,11.5-0.1s7,0,9.4,0c6,0,11.3,0.2,16,0.5c4.7,0.4,8.9,1.6,12.8,3.6
		c3.9,2.1,7.1,4.8,9.5,8.4c2.4,3.5,3.6,8,3.6,13.4c0,3.3-0.6,6.3-1.8,8.9c-1.2,2.6-2.8,5-4.8,7c-2,2-4.4,3.7-7,5.2
		c-2.7,1.4-5.5,2.6-8.5,3.6v0.4c1.5,0.8,3,2,4.4,3.5c1.4,1.5,2.8,3.2,4.2,5.1c2.3,3.4,4.8,7.1,7.6,11c2.7,3.9,5.2,7.4,7.3,10.5
		c3.3,4.7,6.5,8.1,9.7,10.2c3.1,2.2,6.8,3.5,11,4.2v1.3H1284.7z M1271.4,557.3c-2.2-3.5-5.5-6.3-9.8-8.3c-2.1-1-4.4-1.7-6.8-2.2
		c-2.4-0.4-4.8-0.7-7.5-0.7c-1.9,0-3.4,0.1-4.6,0.1c-1.2,0.1-2.1,0.2-2.7,0.3c-0.1,0.5-0.2,1-0.3,1.4c-0.1,0.4-0.2,0.9-0.2,1.5
		c0,0.6-0.1,1.5-0.1,2.6c-0.1,1.1-0.1,2.7-0.2,4.8c-0.1,3.1-0.2,6.7-0.2,10.6c0,3.9-0.1,7.7-0.1,11.4s0,6.9,0,9.7c0,2.7,0,4.4,0,5.1
		c3.7,0,7.1-0.2,10.3-0.5c3.2-0.3,6.2-1,9.2-1.9c2.9-0.9,5.3-2.1,7.4-3.6c2.1-1.5,3.7-3.2,5-5.2c1.3-1.9,2.3-4,2.9-6.2
		c0.6-2.2,0.9-4.6,0.9-7C1274.8,564.8,1273.7,560.8,1271.4,557.3z"/>
	<path class="st0" d="M1397.1,640.9v-1.3c0.3,0,0.9-0.1,1.9-0.3c1-0.2,2.1-0.5,3.2-0.9s2.1-1.1,3-1.9c0.8-0.8,1.3-1.8,1.3-3.1
		c0-0.8-0.3-2.1-0.7-4c-0.5-1.8-1.2-4.1-2.1-6.7c-0.9-2.6-1.9-5.6-3.1-8.8s-2.4-6.6-3.8-10.1h-35.7c-1.3,3.4-2.6,6.6-3.9,9.7
		c-1.3,3.1-2.5,6.2-3.8,9.3c-1.9,4.8-2.8,8.2-2.8,10.2c0,1.2,0.4,2.1,1.1,2.9c0.7,0.8,1.6,1.4,2.7,1.9c1.1,0.5,2.3,0.9,3.6,1.1
		c1.3,0.2,2.5,0.4,3.7,0.6v1.3h-28.6v-1.5c2.3-0.3,4.3-0.9,6-1.9c1.7-1,2.6-1.7,2.9-2c0.6-0.6,1.7-2.1,3.1-4.4
		c1.4-2.3,3.2-5.8,5.2-10.3c1.9-4.2,4-9,6.3-14.4c2.3-5.4,4.7-10.9,7.2-16.6c2.5-5.7,4.9-11.4,7.3-17.2c2.4-5.8,4.7-11.2,6.8-16.2
		l-1.3-3c1.6-0.7,3.1-1.6,4.4-2.6c1.3-1,2.4-2,3.4-3.1c1-1.1,1.8-2.1,2.5-3.1c0.7-1,1.2-1.8,1.5-2.4h1.1c2.8,7.4,5.4,14.5,7.9,21.1
		c2.5,6.7,4.9,13.1,7.2,19.3c2.3,6.2,4.5,12.1,6.6,17.9c2.1,5.8,4.3,11.5,6.4,17.1c1,2.8,1.9,5.1,2.7,6.9c0.8,1.8,1.8,3.9,2.9,6.2
		c0.2,0.4,0.6,1,1.2,1.9c0.6,0.9,1.5,1.8,2.5,2.7c1,1,2.3,1.8,3.8,2.5c1.5,0.7,3.3,1.1,5.4,1.2v1.6H1397.1z M1379.5,559.6
		c-0.5,1.2-1.3,3-2.4,5.5c-1,2.5-2.3,5.5-3.8,9.1c-1.5,3.6-3.2,7.6-5,12.1c-1.8,4.5-3.8,9.4-6,14.7h33.4c-1.5-4-3.1-8-4.6-12.1
		c-1.6-4-3.1-7.9-4.6-11.6c-1.5-3.7-2.8-7.1-4-10.2C1381.3,564.1,1380.3,561.5,1379.5,559.6z"/>
	<path class="st0" d="M1472.4,640.9v-1.3c2.2-0.4,4.3-0.9,6.2-1.7c1.9-0.8,3.6-2,4.9-3.5c0.4-0.5,0.8-1.3,1-2.3
		c0.2-1,0.4-2.1,0.5-3.5c0.1-1.3,0.2-2.7,0.3-4.2c0.1-1.5,0.1-2.9,0.1-4.4c0-1.3,0-3,0.1-5.1c0-2.2,0.1-4.5,0.1-7.1
		c0-2.6,0.1-5.2,0.1-7.8c0-2.8,0-5.4,0-7.8V566c0-1.6,0-3.2,0-4.8s-0.1-3.1-0.2-4.5c-0.1-1.4-0.3-2.6-0.6-3.8
		c-0.3-1.1-0.7-2-1.2-2.6c-1.2-1.5-2.8-2.6-4.6-3.3c-1.8-0.7-3.9-1.1-6.2-1.4v-1.3h40.1v1.3c-1.9,0.3-3.9,0.8-6,1.5
		c-2.2,0.7-3.8,2.2-5,4.3c-0.8,1.5-1.2,3.4-1.3,5.8c-0.1,2.3-0.1,4.5-0.2,6.6c0,2.2,0,4.5-0.1,6.6c0,2.2-0.1,4.4-0.1,6.6
		c0,2.2,0,4.6,0,7c0,2.3,0,4.9,0,7.7V622c0,2.6,0.1,5.1,0.1,7.5c0.1,2.4,0.5,4.1,1.2,5.1c1.1,1.5,2.8,2.7,5.1,3.5
		c2.3,0.8,4.4,1.3,6.3,1.5v1.3H1472.4z"/>
</g>
<g>
	<path class="st1" d="M58.2,762.7c-1.5,3.3-3.5,6.3-6,8.7c-2.5,2.5-5.5,4.4-8.9,5.7c-3.4,1.3-7,2-10.7,2c-3.7,0-7.3-0.7-10.6-2
		s-6.3-3.2-8.8-5.5c-2.5-2.4-4.5-5.2-5.9-8.6c-1.5-3.3-2.2-7-2.2-11c0-4.2,0.8-8,2.3-11.4c1.5-3.4,3.6-6.2,6.2-8.6
		c2.6-2.3,5.6-4.1,9.1-5.4c3.5-1.2,7.1-1.9,11-1.9c4.2,0,7.9,0.7,11.3,2.2c3.3,1.5,6.1,3.5,8.5,5.9c2.3,2.5,4.1,5.4,5.3,8.6
		c1.2,3.2,1.8,6.6,1.8,10.2C60.4,755.7,59.7,759.3,58.2,762.7z M50.1,742.7c-0.8-3.1-1.9-5.8-3.5-8.3c-1.6-2.5-3.5-4.5-5.8-6.1
		c-2.3-1.5-5-2.3-8.2-2.3c-3.2,0-6,0.8-8.3,2.3c-2.3,1.6-4.3,3.6-5.8,6c-1.5,2.5-2.6,5.3-3.3,8.4c-0.7,3.1-1.1,6.3-1.1,9.5
		c0,3.3,0.4,6.6,1.2,9.7c0.8,3.1,2,5.8,3.5,8.2c1.6,2.4,3.5,4.3,5.8,5.7c2.3,1.4,5.1,2.1,8.2,2.1c3.1,0,5.8-0.8,8.1-2.4
		c2.3-1.6,4.2-3.6,5.7-6.1c1.5-2.5,2.7-5.3,3.4-8.4c0.8-3.1,1.1-6.2,1.1-9.3C51.3,748.8,50.9,745.8,50.1,742.7z"/>
	<path class="st1" d="M131.8,738.3c-2-2.5-3.9-4.7-5.8-6.4c-1.8-1.8-3.6-3.1-5.3-3.9c-0.8-0.4-2.3-0.7-4.5-1
		c-2.2-0.3-4.7-0.4-7.6-0.4c-0.5,0-1.1,0-1.7,0c-0.6,0-1.3,0-1.8,0.1c-0.6,0-1.1,0.1-1.7,0.1c-0.5,0-0.9,0-1.1,0
		c0,0.3-0.1,0.6-0.2,0.9c-0.1,0.3-0.1,0.6-0.2,1c0,0.4-0.1,0.9-0.1,1.5c-0.1,0.6-0.1,1.4-0.2,2.3c0,1.7-0.1,3.6-0.1,5.6s0,4,0,5.8
		s0,3.4,0,4.7c0,1.3,0,2,0,2.3c0.1,0,0.6,0,1.3,0c0.8,0,1.7,0,2.6-0.1c1-0.1,2-0.1,3-0.2c1-0.1,1.9-0.2,2.6-0.3
		c1.8-0.4,3.2-0.9,4.2-1.5c1-0.6,1.8-1.4,2.4-2.3c0.6-0.9,1-1.9,1.3-2.9c0.2-1.1,0.5-2.2,0.7-3.4h0.9v23.8h-0.9
		c-0.4-1.6-1-3.2-1.7-5c-0.7-1.7-1.6-3.1-2.7-4c-0.9-0.8-1.9-1.5-3-1.9c-1.1-0.4-2.3-0.7-3.7-0.8c-0.7,0-1.4-0.1-1.9-0.1
		c-0.5,0-1.1,0-1.6,0c-0.5,0-1,0-1.6,0s-1.2,0-2,0c0,1.6,0,3.2,0,4.7c0,1.5,0,3,0,4.4c0,1.4,0,2.6,0,3.8c0,1.2,0,2.2,0,3
		c0.1,1.6,0.1,3.1,0.3,4.5c0.1,1.4,0.4,2.4,0.8,3.1c0.4,0.7,1.2,1.2,2.3,1.6c1.1,0.4,2.6,0.6,4.6,0.7v0.7H85.8V778
		c1.2-0.2,2.4-0.5,3.4-1c1.1-0.5,1.9-1.1,2.6-1.8c0.2-0.3,0.4-0.7,0.6-1.3c0.2-0.6,0.3-1.2,0.4-2c0.1-0.7,0.2-1.5,0.3-2.3
		c0.1-0.8,0.1-1.6,0.1-2.4c0-0.7,0-1.6,0-2.8c0-1.2,0-2.5,0.1-3.9c0-1.4,0-2.9,0-4.3c0-1.5,0-3,0-4.3v-14.4c0-0.9,0-1.8,0-2.7
		c0-0.9-0.1-1.8-0.1-2.7c-0.1-0.8-0.2-1.6-0.4-2.3c-0.2-0.7-0.4-1.1-0.7-1.4c-0.7-0.8-1.5-1.3-2.4-1.5c-0.8-0.2-1.9-0.4-3.3-0.6
		v-0.7h41.1l5,12.4L131.8,738.3z"/>
	<path class="st1" d="M201.9,738.3c-2-2.5-3.9-4.7-5.8-6.4c-1.8-1.8-3.6-3.1-5.3-3.9c-0.8-0.4-2.3-0.7-4.5-1
		c-2.2-0.3-4.7-0.4-7.6-0.4c-0.5,0-1.1,0-1.7,0c-0.6,0-1.3,0-1.8,0.1c-0.6,0-1.1,0.1-1.7,0.1c-0.5,0-0.9,0-1.1,0
		c0,0.3-0.1,0.6-0.2,0.9c-0.1,0.3-0.1,0.6-0.2,1c0,0.4-0.1,0.9-0.1,1.5c-0.1,0.6-0.1,1.4-0.2,2.3c0,1.7-0.1,3.6-0.1,5.6s0,4,0,5.8
		s0,3.4,0,4.7c0,1.3,0,2,0,2.3c0.1,0,0.6,0,1.3,0c0.8,0,1.7,0,2.6-0.1c1-0.1,2-0.1,3-0.2c1-0.1,1.9-0.2,2.6-0.3
		c1.8-0.4,3.2-0.9,4.2-1.5c1-0.6,1.8-1.4,2.4-2.3c0.6-0.9,1-1.9,1.3-2.9c0.2-1.1,0.5-2.2,0.7-3.4h0.9v23.8h-0.9
		c-0.4-1.6-1-3.2-1.7-5c-0.7-1.7-1.6-3.1-2.7-4c-0.9-0.8-1.9-1.5-3-1.9c-1.1-0.4-2.3-0.7-3.7-0.8c-0.7,0-1.4-0.1-1.9-0.1
		c-0.5,0-1.1,0-1.6,0c-0.5,0-1,0-1.6,0c-0.5,0-1.2,0-2,0c0,1.6,0,3.2,0,4.7c0,1.5,0,3,0,4.4c0,1.4,0,2.6,0,3.8c0,1.2,0,2.2,0,3
		c0.1,1.6,0.1,3.1,0.3,4.5c0.1,1.4,0.4,2.4,0.8,3.1c0.4,0.7,1.2,1.2,2.3,1.6c1.1,0.4,2.6,0.6,4.6,0.7v0.7h-23.6V778
		c1.2-0.2,2.4-0.5,3.4-1c1.1-0.5,1.9-1.1,2.6-1.8c0.2-0.3,0.4-0.7,0.6-1.3c0.2-0.6,0.3-1.2,0.4-2c0.1-0.7,0.2-1.5,0.3-2.3
		c0.1-0.8,0.1-1.6,0.1-2.4c0-0.7,0-1.6,0-2.8c0-1.2,0-2.5,0.1-3.9c0-1.4,0-2.9,0-4.3c0-1.5,0-3,0-4.3v-14.4c0-0.9,0-1.8,0-2.7
		c0-0.9-0.1-1.8-0.1-2.7c-0.1-0.8-0.2-1.6-0.4-2.3c-0.2-0.7-0.4-1.1-0.7-1.4c-0.7-0.8-1.5-1.3-2.4-1.5c-0.8-0.2-1.9-0.4-3.3-0.6
		v-0.7h41.1l5,12.4L201.9,738.3z"/>
	<path class="st1" d="M226.3,778.7V778c1.2-0.2,2.4-0.5,3.4-1c1.1-0.5,2-1.1,2.7-1.9c0.2-0.3,0.4-0.7,0.6-1.3
		c0.1-0.5,0.2-1.2,0.3-1.9c0.1-0.7,0.1-1.5,0.1-2.3c0-0.8,0-1.6,0-2.4c0-0.7,0-1.6,0-2.8c0-1.2,0.1-2.5,0.1-3.9c0-1.4,0-2.9,0-4.3
		c0-1.5,0-3,0-4.3v-14.4c0-0.9,0-1.8,0-2.7c0-0.9,0-1.7-0.1-2.5c-0.1-0.8-0.2-1.5-0.3-2.1c-0.2-0.6-0.4-1.1-0.7-1.4
		c-0.7-0.8-1.5-1.4-2.6-1.8c-1-0.4-2.2-0.6-3.4-0.8v-0.7h22.1v0.7c-1,0.2-2.1,0.4-3.3,0.8c-1.2,0.4-2.1,1.2-2.7,2.4
		c-0.4,0.8-0.7,1.9-0.7,3.2c0,1.3-0.1,2.5-0.1,3.6c0,1.2,0,2.4,0,3.7c0,1.2,0,2.4,0,3.6c0,1.2,0,2.5,0,3.8c0,1.3,0,2.7,0,4.2v16.7
		c0,1.4,0,2.8,0.1,4.1c0,1.3,0.3,2.3,0.7,2.8c0.6,0.8,1.5,1.5,2.8,1.9c1.3,0.5,2.4,0.7,3.5,0.8v0.7H226.3z"/>
	<path class="st1" d="M325.3,742.7c-0.6-2.4-1.6-4.6-2.9-6.6s-2.8-3.9-4.5-5.4c-1.7-1.5-3.7-2.7-5.9-3.6c-2.2-0.9-4.5-1.3-7-1.3
		c-3.4,0-6.4,0.8-9.1,2.3c-2.7,1.5-4.9,3.5-6.7,6.1c-1.8,2.5-3.2,5.4-4.1,8.5c-1,3.2-1.4,6.4-1.4,9.8c0,3.5,0.5,6.9,1.5,10
		c1,3.1,2.4,5.8,4.3,8.1s4.1,4.1,6.8,5.4c2.7,1.3,5.6,2,8.9,2c2.6,0,5-0.5,7.2-1.4c2.2-0.9,4.2-2.2,6-3.7c1.7-1.5,3.2-3.3,4.4-5.3
		c1.2-2,2-4.1,2.5-6.2h0.9l-0.2,16.2H325c-0.6-0.8-1.2-1.6-1.8-2.3c-0.6-0.7-1.1-1-1.3-1c-0.1,0-0.5,0.3-1.3,0.8
		c-0.8,0.5-1.9,1.1-3.4,1.7s-3.3,1.2-5.4,1.6c-2.1,0.5-4.6,0.7-7.3,0.7c-4.6,0-8.7-0.6-12.4-2c-3.7-1.3-6.8-3.2-9.4-5.5
		c-2.6-2.4-4.6-5.2-5.9-8.6c-1.4-3.3-2.1-7-2.1-11c0-0.9,0.1-1.9,0.2-3c0.1-1.1,0.3-2.3,0.7-3.6c0.3-1.3,0.8-2.6,1.3-4
		c0.6-1.4,1.3-2.8,2.2-4.2c1-1.7,2.3-3.3,3.8-4.8c1.5-1.5,3.3-2.9,5.4-4c2.1-1.2,4.4-2.1,7-2.8c2.6-0.7,5.5-1,8.8-1
		c3,0,5.5,0.3,7.8,0.8c2.2,0.5,4.1,1.1,5.5,1.8c1.5,0.6,2.6,1.2,3.4,1.8c0.8,0.5,1.2,0.8,1.3,0.8s0.3-0.1,0.6-0.3
		c0.3-0.2,0.6-0.5,0.9-0.8c0.3-0.3,0.7-0.7,1-1.1c0.3-0.4,0.7-0.9,1-1.3h0.8v16.5L325.3,742.7z"/>
	<path class="st1" d="M354.5,778.7V778c1.2-0.2,2.4-0.5,3.4-1c1.1-0.5,2-1.1,2.7-1.9c0.2-0.3,0.4-0.7,0.6-1.3
		c0.1-0.5,0.2-1.2,0.3-1.9c0.1-0.7,0.1-1.5,0.1-2.3c0-0.8,0-1.6,0-2.4c0-0.7,0-1.6,0-2.8c0-1.2,0.1-2.5,0.1-3.9c0-1.4,0-2.9,0-4.3
		c0-1.5,0-3,0-4.3v-14.4c0-0.9,0-1.8,0-2.7c0-0.9,0-1.7-0.1-2.5s-0.2-1.5-0.3-2.1c-0.2-0.6-0.4-1.1-0.7-1.4
		c-0.7-0.8-1.5-1.4-2.6-1.8c-1-0.4-2.2-0.6-3.4-0.8v-0.7h22.1v0.7c-1,0.2-2.1,0.4-3.3,0.8c-1.2,0.4-2.1,1.2-2.7,2.4
		c-0.4,0.8-0.7,1.9-0.7,3.2s-0.1,2.5-0.1,3.6c0,1.2,0,2.4,0,3.7c0,1.2,0,2.4,0,3.6c0,1.2,0,2.5,0,3.8c0,1.3,0,2.7,0,4.2v16.7
		c0,1.4,0,2.8,0.1,4.1c0,1.3,0.3,2.3,0.7,2.8c0.6,0.8,1.5,1.5,2.8,1.9c1.3,0.5,2.4,0.7,3.5,0.8v0.7H354.5z"/>
	<path class="st1" d="M437.3,778.7V778c0.2,0,0.5,0,1.1-0.2c0.6-0.1,1.2-0.3,1.8-0.5c0.6-0.2,1.2-0.6,1.6-1c0.5-0.5,0.7-1,0.7-1.7
		c0-0.4-0.1-1.2-0.4-2.2c-0.3-1-0.7-2.2-1.1-3.7c-0.5-1.5-1.1-3.1-1.7-4.8c-0.6-1.8-1.3-3.6-2.1-5.5h-19.7c-0.7,1.9-1.5,3.7-2.1,5.4
		c-0.7,1.7-1.4,3.4-2.1,5.1c-1,2.7-1.6,4.5-1.6,5.6c0,0.6,0.2,1.2,0.6,1.6c0.4,0.4,0.9,0.8,1.5,1c0.6,0.3,1.3,0.5,2,0.6
		s1.4,0.2,2,0.3v0.7h-15.7v-0.8c1.3-0.1,2.4-0.5,3.3-1s1.4-0.9,1.6-1.1c0.3-0.3,0.9-1.2,1.7-2.4c0.8-1.3,1.7-3.2,2.9-5.7
		c1-2.3,2.2-5,3.5-7.9c1.3-2.9,2.6-6,3.9-9.1c1.4-3.1,2.7-6.3,4-9.5c1.3-3.2,2.6-6.1,3.8-8.9l-0.7-1.6c0.9-0.4,1.7-0.9,2.4-1.4
		c0.7-0.5,1.3-1.1,1.9-1.7c0.5-0.6,1-1.2,1.4-1.7c0.4-0.5,0.7-1,0.9-1.3h0.6c1.5,4.1,3,8,4.4,11.6c1.4,3.7,2.7,7.2,3.9,10.6
		c1.3,3.4,2.5,6.7,3.7,9.9c1.2,3.2,2.4,6.3,3.5,9.4c0.5,1.5,1,2.8,1.5,3.8c0.5,1,1,2.1,1.6,3.4c0.1,0.2,0.3,0.5,0.7,1
		c0.3,0.5,0.8,1,1.4,1.5c0.6,0.5,1.3,1,2.1,1.4c0.8,0.4,1.8,0.6,3,0.7v0.9H437.3z M427.6,734c-0.3,0.6-0.7,1.6-1.3,3
		c-0.6,1.4-1.3,3-2.1,5c-0.8,2-1.8,4.2-2.8,6.7c-1,2.5-2.1,5.2-3.3,8.1h18.4c-0.8-2.2-1.7-4.4-2.6-6.7c-0.9-2.2-1.7-4.4-2.5-6.4
		c-0.8-2-1.6-3.9-2.2-5.6C428.6,736.4,428,735,427.6,734z"/>
	<path class="st1" d="M530.9,778.7h-47.4V778c1.2-0.2,2.4-0.5,3.7-1c1.2-0.5,2.2-1.1,2.8-1.8c0.2-0.3,0.5-0.7,0.6-1.3
		c0.2-0.6,0.3-1.2,0.4-2c0.1-0.7,0.2-1.5,0.3-2.3c0.1-0.8,0.1-1.6,0.1-2.4c0-0.7,0-1.6,0-2.8c0-1.2,0-2.5,0.1-3.9c0-1.4,0-2.9,0-4.3
		c0-1.5,0-3,0-4.3v-14.3c0-0.9,0-1.7,0-2.6c0-0.9,0-1.7-0.1-2.5c-0.1-0.8-0.2-1.4-0.3-2c-0.2-0.6-0.4-1.1-0.7-1.4
		c-0.7-0.8-1.6-1.5-2.8-1.9c-1.2-0.5-2.4-0.7-3.7-0.9v-0.7h23.6v0.7c-0.6,0.1-1.4,0.3-2.3,0.4c-0.9,0.2-1.7,0.5-2.5,1
		c-0.8,0.4-1.5,1.1-2,1.9c-0.6,0.8-0.9,1.9-0.9,3.2c-0.1,1.7-0.1,3.3-0.1,4.7c0,1.4-0.1,2.8-0.1,4.2c0,1.4,0,2.8,0,4.3
		c0,1.5,0,3.1,0,5c0,1.7,0,3.2,0,4.6c0,1.3,0,2.6,0,3.9c0,1.3,0,2.6,0,3.9c0,1.4,0,2.9,0,4.5c0.1,1.6,0.1,3.1,0.2,4.5
		c0.1,1.4,0.3,2.5,0.8,3.2c0.2,0.2,0.6,0.5,1.2,0.7c0.6,0.2,1.3,0.5,2.1,0.6c0.8,0.2,1.7,0.3,2.7,0.5c1,0.1,2,0.2,3,0.2
		c0.4,0,1,0,1.9,0c0.9,0,1.8-0.1,2.8-0.2c1-0.1,2.1-0.2,3.2-0.3c1.1-0.2,2-0.3,2.9-0.6c2-0.5,3.6-1.3,4.9-2.1
		c1.3-0.9,2.4-1.9,3.4-3.1c0.9-1.2,1.7-2.4,2.4-3.8c0.6-1.4,1.3-2.8,1.8-4.2l0.7,0.2L530.9,778.7z"/>
	<path class="st1" d="M630.3,770.5c-1,1.9-2.3,3.5-4,4.8c-1.7,1.3-3.7,2.3-6.1,3c-2.4,0.6-4.9,1-7.8,1c-2.4,0-4.5-0.2-6.2-0.5
		c-1.7-0.3-3.2-0.6-4.3-1.1c-1.1-0.4-2-0.8-2.5-1.1c-0.6-0.3-0.9-0.5-1.1-0.5c-0.1,0-0.5,0.3-1,0.9s-0.9,1.2-1.3,1.7h-0.7l-0.2-14.7
		h0.7c0.4,1.3,1,2.6,1.7,3.9c0.7,1.3,1.4,2.4,2.3,3.5c0.8,1.1,1.7,2.1,2.6,2.9c0.9,0.8,1.8,1.5,2.6,1.9c0.8,0.5,1.9,0.9,3.3,1.3
		c1.4,0.5,2.7,0.7,4,0.7c3.6,0,6.6-1,8.9-3c2.3-2,3.4-4.7,3.4-8.1c0-1.4-0.2-2.6-0.7-3.6c-0.4-1-1.1-1.9-1.8-2.7
		c-0.8-0.8-1.7-1.4-2.7-2c-1-0.5-2.1-1-3.3-1.5c-1.2-0.5-2.2-0.8-3.1-1.1c-0.9-0.3-1.7-0.6-2.5-0.9c-0.8-0.3-1.6-0.5-2.4-0.8
		c-0.8-0.3-1.8-0.6-2.9-1.1c-1.3-0.5-2.5-1.2-3.7-2c-1.2-0.9-2.2-1.9-3.1-3c-0.9-1.2-1.6-2.4-2.1-3.8c-0.5-1.4-0.8-2.9-0.8-4.5
		c0-2.7,0.5-5,1.5-6.9c1-1.9,2.3-3.5,3.9-4.8c1.6-1.3,3.5-2.2,5.7-2.8c2.1-0.6,4.4-0.9,6.8-0.9c2.2,0,4.1,0.2,5.7,0.6
		s2.9,0.8,3.9,1.2c1,0.5,1.8,0.9,2.3,1.2c0.5,0.4,0.8,0.6,0.8,0.6c0.2,0,0.5-0.3,0.9-0.9c0.5-0.6,0.9-1.2,1.3-1.8h0.8v13.7h-0.8
		c-0.6-1.6-1.4-3.2-2.3-4.8c-0.9-1.6-2-3-3.3-4.3c-1.2-1.3-2.6-2.3-4.2-3.1c-1.6-0.8-3.3-1.2-5.2-1.2c-1.5,0-3,0.2-4.3,0.7
		c-1.4,0.4-2.5,1.1-3.6,2c-1,0.9-1.8,2-2.4,3.3c-0.6,1.3-0.8,2.8-0.8,4.5c0,2.6,0.8,4.7,2.4,6.3c1.6,1.6,3.6,2.8,6.1,3.8
		c1,0.4,1.9,0.7,2.8,1c0.9,0.3,1.7,0.6,2.5,0.9c0.8,0.3,1.7,0.6,2.5,0.8c0.9,0.3,1.8,0.6,2.7,1c3.3,1.2,5.9,3,7.8,5.4
		c1.8,2.3,2.8,5.3,2.8,8.8C631.8,766.5,631.3,768.6,630.3,770.5z"/>
	<path class="st1" d="M658.8,778.7V778c1.2-0.2,2.4-0.5,3.4-1c1.1-0.5,2-1.1,2.7-1.9c0.2-0.3,0.4-0.7,0.6-1.3
		c0.1-0.5,0.2-1.2,0.3-1.9c0.1-0.7,0.1-1.5,0.1-2.3c0-0.8,0-1.6,0-2.4c0-0.7,0-1.6,0-2.8c0-1.2,0.1-2.5,0.1-3.9c0-1.4,0-2.9,0-4.3
		c0-1.5,0-3,0-4.3v-14.4c0-0.9,0-1.8,0-2.7c0-0.9,0-1.7-0.1-2.5c-0.1-0.8-0.2-1.5-0.3-2.1c-0.2-0.6-0.4-1.1-0.7-1.4
		c-0.7-0.8-1.5-1.4-2.6-1.8c-1-0.4-2.2-0.6-3.4-0.8v-0.7h22.1v0.7c-1,0.2-2.1,0.4-3.3,0.8c-1.2,0.4-2.1,1.2-2.7,2.4
		c-0.4,0.8-0.7,1.9-0.7,3.2s-0.1,2.5-0.1,3.6c0,1.2,0,2.4,0,3.7c0,1.2,0,2.4,0,3.6c0,1.2,0,2.5,0,3.8c0,1.3,0,2.7,0,4.2v16.7
		c0,1.4,0,2.8,0.1,4.1c0,1.3,0.3,2.3,0.7,2.8c0.6,0.8,1.5,1.5,2.8,1.9c1.3,0.5,2.4,0.7,3.5,0.8v0.7H658.8z"/>
	<path class="st1" d="M761.9,739.4c-0.4-0.9-0.9-1.8-1.4-2.8c-0.5-1-1.1-1.9-1.7-2.7c-0.6-0.8-1.1-1.6-1.7-2.3
		c-0.5-0.7-1-1.2-1.4-1.6c-1-1-2.2-1.6-3.4-2s-2.7-0.5-4.6-0.6c-0.9,0-1.7,0-2.4,0c-0.7,0-1.4,0-2.1,0c-0.6,0-1.4,0-2.1,0
		c-0.7,0-1.7,0-2.7,0c0,1.2,0,2.9,0,5c0,2.1,0,4.3,0,6.6c0,2.3,0,4.6,0,6.9c0,2.2,0,4.1,0,5.6V768c0,1.4,0,2.8,0.1,4.1
		c0.1,1.3,0.3,2.2,0.7,2.8c0.7,1.1,1.8,1.8,3.1,2.2c1.4,0.4,2.6,0.7,3.7,0.9v0.7h-24V778c1.3-0.2,2.5-0.4,3.7-0.7
		c1.2-0.3,2.3-1.2,3.5-2.4c0.2-0.3,0.4-0.7,0.6-1.2c0.1-0.6,0.2-1.2,0.3-1.9c0.1-0.7,0.1-1.5,0.1-2.3c0-0.8,0-1.7,0-2.4
		c0-0.7,0-1.6,0-2.7c0-1.1,0-2.4,0.1-3.8c0-1.4,0-2.8,0-4.3c0-1.5,0-2.9,0-4.2v-24.5c-1,0-1.9,0-2.7,0c-0.7,0-1.5,0-2.1,0
		c-0.6,0-1.3,0-2,0c-0.7,0-1.5,0-2.5,0c-1.9,0-3.4,0.3-4.6,0.7c-1.2,0.4-2.3,1.1-3.4,2.1c-0.4,0.3-0.8,0.9-1.4,1.5
		c-0.5,0.7-1.1,1.4-1.6,2.3c-0.6,0.8-1.1,1.7-1.6,2.6c-0.5,0.9-0.9,1.8-1.2,2.7l-0.7-0.2l2.2-14c1.1,0.3,2.2,0.5,3.1,0.6
		c1,0.2,2.3,0.3,4.2,0.3c1.9,0,3.5,0.1,5,0.1c1.5,0,2.9,0,4.3,0c1.4,0,2.8,0,4.2,0c1.5,0,3.1,0,5,0c1.8,0,3.4,0,4.9,0
		c1.5,0,2.9,0,4.3,0c1.4,0,2.8-0.1,4.3-0.1c1.5,0,3.2,0,5,0c1.6,0,3-0.2,4-0.4c1.1-0.2,2.2-0.5,3.3-0.9l2.4,14.4L761.9,739.4z"/>
	<path class="st1" d="M832.3,778.7h-45.2V778c1.2-0.2,2.4-0.5,3.4-1c1.1-0.5,1.9-1.1,2.6-1.8c0.2-0.3,0.4-0.7,0.6-1.3
		c0.2-0.6,0.3-1.2,0.4-2c0.1-0.7,0.2-1.5,0.3-2.3c0.1-0.8,0.1-1.6,0.1-2.4c0-0.7,0-1.6,0-2.8c0-1.2,0-2.5,0.1-3.9c0-1.4,0-2.9,0-4.3
		c0-1.5,0-3,0-4.3v-14.4c0-0.9,0-1.8,0-2.7c0-0.9-0.1-1.8-0.1-2.7c-0.1-0.8-0.2-1.6-0.4-2.3c-0.2-0.7-0.4-1.1-0.7-1.4
		c-0.7-0.8-1.5-1.3-2.4-1.5c-0.8-0.2-1.9-0.4-3.2-0.6v-0.7h40.8l5,12.2l-0.7,0.4c-4-5-7.7-8.3-11.2-10c-0.8-0.4-2.4-0.7-4.7-1
		c-2.3-0.3-5-0.4-8.3-0.4c-1,0-2.1,0-3.2,0.1c-1.1,0.1-1.9,0.2-2.4,0.3c-0.1,0.8-0.2,2.4-0.3,4.9c-0.1,2.5-0.1,5.3-0.1,8.6
		c0,1.9,0,3.5,0,4.7c0,1.3,0,2.3,0,3.1c0,0.8,0,1.4,0,1.9c0,0.4,0,0.7,0,0.8c0.3,0,0.7,0,1.5,0c0.7,0,1.6,0,2.6-0.1
		c1-0.1,1.9-0.1,2.9-0.2c1-0.1,1.8-0.2,2.4-0.3c1.5-0.3,2.7-0.8,3.7-1.4c1-0.6,1.8-1.3,2.4-2.1c0.6-0.8,1.1-1.8,1.5-2.9
		c0.4-1.1,0.7-2.4,1-3.7h0.9v23.3h-0.9c-0.4-1.6-1-3.2-1.8-4.9c-0.8-1.7-1.7-2.9-2.6-3.8c-0.8-0.7-1.7-1.3-2.8-1.7
		c-1.1-0.5-2.4-0.7-3.9-0.8c-0.7,0-1.4-0.1-1.8-0.1c-0.5,0-1,0-1.5,0c-0.4,0-0.9,0-1.5,0c-0.5,0-1.1,0-1.9,0c-0.1,0.7-0.2,1.7-0.2,3
		c0,1.3,0,2.7,0,4.1c0,0.6,0,1.4,0,2.2c0,0.8,0,1.7,0,2.5c0,0.8,0,1.5,0,2.3c0,0.7,0,1.3,0,1.8c0.1,1.6,0.1,3.1,0.3,4.5
		c0.1,1.4,0.4,2.4,0.8,3.1c0.5,0.7,1.5,1.2,3.2,1.5c1.7,0.3,3.5,0.5,5.5,0.5c0.8,0,1.9,0,3.2-0.1c1.3,0,2.7-0.2,4.1-0.4
		c1.6-0.2,3-0.6,4.4-1.1s2.6-1.4,3.8-2.4c1.2-1,2.4-2.3,3.6-3.8c1.2-1.5,2.4-3.3,3.6-5.4l0.8,0.2L832.3,778.7z"/>
	<path class="st1" d="M951.6,745.4c-2.1,1.3-4,2.9-5.9,4.8c-1.8,1.9-3.7,4-5.4,6.3c-1.8,2.3-3.6,4.6-5.6,6.8
		c0.7,0.9,1.5,1.9,2.4,3.1c0.9,1.2,2,2.4,3.3,3.8c1.3,1.3,2.6,2.4,3.9,3.2c1.3,0.8,2.9,1.3,4.8,1.3c1,0,1.9-0.2,2.8-0.6
		c0.9-0.4,1.7-0.9,2.4-1.5s1.4-1.2,2-1.9c0.6-0.7,1.1-1.3,1.4-1.9l0.7,0.3c-0.3,1-1,2.1-1.9,3.4s-2,2.4-3.3,3.5
		c-1.3,1.1-2.7,2-4.3,2.7c-1.6,0.7-3.3,1-5,1c-1.6,0-3.1-0.3-4.5-0.9c-1.4-0.6-2.7-1.3-3.9-2.3c-1.2-1-2.3-2.1-3.4-3.4
		c-1-1.3-2-2.6-2.8-3.9c-0.6,0.9-1.5,2-2.7,3.2s-2.4,2.3-3.9,3.3c-1.5,1-3.2,1.9-5,2.6c-1.8,0.7-3.7,1-5.8,1c-2.3,0-4.3-0.3-6.1-1
		c-1.8-0.7-3.3-1.6-4.6-2.8c-1.2-1.2-2.2-2.6-2.8-4.2c-0.7-1.6-1-3.3-1-5.1c0-2.1,0.4-4,1.3-5.7c0.9-1.7,2-3.3,3.4-4.7
		c1.4-1.4,3-2.7,4.7-3.8c1.7-1.1,3.4-2.1,5.1-2.9c-1.1-1.1-2.1-2.2-3-3.1s-1.7-1.9-2.4-2.8c-0.7-1-1.2-2.1-1.7-3.3
		c-0.4-1.2-0.6-2.6-0.6-4.2c0-1.6,0.4-3.1,1.1-4.5c0.8-1.4,1.7-2.5,3-3.5c1.2-1,2.6-1.7,4.1-2.3c1.5-0.5,3-0.8,4.5-0.8
		c1.3,0,2.6,0.2,3.9,0.6c1.3,0.4,2.4,1,3.4,1.7c1,0.8,1.8,1.7,2.5,2.9c0.6,1.2,1,2.6,1,4.1c0,1.6-0.3,3-1,4.3
		c-0.7,1.3-1.5,2.4-2.4,3.4c-0.9,1-1.8,1.8-2.8,2.4c-0.9,0.6-1.7,1.1-2.1,1.4c1.5,1.2,2.9,2.4,4.2,3.7c1.3,1.3,2.5,2.6,3.8,4
		c1.4,1.6,2.7,3.2,3.8,4.8c1.2,1.6,2.1,3.1,3,4.5c1.1-1.4,2.2-2.9,3.2-4.3c1-1.4,1.9-2.8,2.7-4.1c0.8-1.3,1.4-2.5,1.8-3.5
		c0.5-1.1,0.7-1.9,0.7-2.6c0-1.1-0.3-1.9-0.9-2.5c-0.6-0.6-1.3-1-2.3-1.3c-0.9-0.3-2-0.5-3.1-0.6c-1.1-0.1-2.3-0.1-3.4-0.2v-0.9
		l25.8-0.6v0.9C956,743.3,953.7,744.1,951.6,745.4z M927,765.5c-0.6-0.9-1.2-1.7-1.8-2.5c-0.6-0.8-1.3-1.7-2-2.5
		c-0.7-0.9-1.5-1.8-2.4-2.9c-0.5-0.6-1.1-1.2-1.8-2c-0.7-0.7-1.5-1.5-2.2-2.2c-0.8-0.7-1.5-1.4-2.2-2c-0.7-0.6-1.3-1.2-1.8-1.6
		c-0.8,0.7-1.7,1.5-2.6,2.4c-0.9,0.9-1.7,2-2.4,3.1c-0.7,1.1-1.3,2.4-1.8,3.7c-0.5,1.4-0.7,2.8-0.7,4.2c0,1.5,0.3,2.9,0.7,4.2
		c0.5,1.3,1.2,2.5,2.1,3.5c0.9,1,2,1.8,3.3,2.4c1.3,0.6,2.7,0.9,4.2,0.9c1.5,0,2.9-0.1,4.1-0.4c1.2-0.2,2.3-0.6,3.3-1.1
		c1-0.5,2-1.1,2.9-1.8c0.9-0.7,1.9-1.5,3-2.5C928.2,767.3,927.6,766.3,927,765.5z M921.8,732.1c-0.3-1.1-0.8-2.1-1.4-3
		c-0.6-0.9-1.3-1.6-2.1-2.1c-0.8-0.5-1.8-0.8-2.7-0.8c-0.9,0-1.7,0.2-2.3,0.6c-0.6,0.4-1.2,0.9-1.6,1.5s-0.7,1.2-0.9,1.9
		c-0.2,0.7-0.3,1.3-0.3,1.9c0,1.6,0.2,2.8,0.4,3.7c0.3,0.9,0.8,1.8,1.6,2.9c0.8,1.2,1.7,2.2,2.7,3.1c1,0.9,2.1,1.9,3.4,3.1
		c1.3-1.3,2.2-2.7,2.8-4.1c0.6-1.4,0.8-3.2,0.8-5.2C922.2,734.4,922.1,733.2,921.8,732.1z"/>
	<path class="st1" d="M1063.4,738.3c-2-2.5-3.9-4.7-5.8-6.4c-1.8-1.8-3.6-3.1-5.3-3.9c-0.8-0.4-2.4-0.7-4.5-1
		c-2.2-0.3-4.7-0.4-7.6-0.4c-0.5,0-1.1,0-1.7,0s-1.3,0-1.8,0.1c-0.6,0-1.1,0.1-1.7,0.1c-0.5,0-0.9,0-1.1,0c0,0.3-0.1,0.6-0.2,0.9
		c-0.1,0.3-0.1,0.6-0.2,1s-0.1,0.9-0.2,1.5c0,0.6-0.1,1.4-0.2,2.3c0,1.7-0.1,3.6-0.1,5.6c0,2,0,4,0,5.8s0,3.4,0,4.7c0,1.3,0,2,0,2.3
		c0.1,0,0.6,0,1.3,0c0.8,0,1.7,0,2.6-0.1c1-0.1,2-0.1,3-0.2c1-0.1,1.9-0.2,2.6-0.3c1.8-0.4,3.2-0.9,4.2-1.5c1-0.6,1.8-1.4,2.4-2.3
		c0.6-0.9,1-1.9,1.3-2.9c0.2-1.1,0.5-2.2,0.7-3.4h0.9v23.8h-0.9c-0.4-1.6-1-3.2-1.7-5c-0.7-1.7-1.6-3.1-2.7-4
		c-0.9-0.8-1.9-1.5-3-1.9c-1.1-0.4-2.3-0.7-3.7-0.8c-0.7,0-1.4-0.1-1.9-0.1c-0.5,0-1.1,0-1.5,0c-0.5,0-1,0-1.6,0s-1.2,0-2,0
		c0,1.6,0,3.2,0,4.7c0,1.5,0,3,0,4.4c0,1.4,0,2.6,0,3.8c0,1.2,0,2.2,0,3c0,1.6,0.1,3.1,0.3,4.5c0.1,1.4,0.4,2.4,0.9,3.1
		c0.4,0.7,1.2,1.2,2.3,1.6c1.1,0.4,2.6,0.6,4.6,0.7v0.7h-23.6V778c1.2-0.2,2.4-0.5,3.4-1c1.1-0.5,1.9-1.1,2.6-1.8
		c0.3-0.3,0.5-0.7,0.6-1.3c0.2-0.6,0.3-1.2,0.4-2c0.1-0.7,0.2-1.5,0.3-2.3c0-0.8,0.1-1.6,0.1-2.4c0-0.7,0-1.6,0-2.8
		c0-1.2,0-2.5,0.1-3.9c0-1.4,0-2.9,0-4.3c0-1.5,0-3,0-4.3v-14.4c0-0.9,0-1.8,0-2.7c0-0.9-0.1-1.8-0.2-2.7c-0.1-0.8-0.2-1.6-0.4-2.3
		c-0.2-0.7-0.4-1.1-0.7-1.4c-0.7-0.8-1.5-1.3-2.4-1.5c-0.8-0.2-1.9-0.4-3.3-0.6v-0.7h41.1l5,12.4L1063.4,738.3z"/>
	<path class="st1" d="M1113.4,778.7V778c0.2,0,0.5,0,1.1-0.2c0.6-0.1,1.2-0.3,1.8-0.5c0.6-0.2,1.2-0.6,1.6-1c0.5-0.5,0.7-1,0.7-1.7
		c0-0.4-0.1-1.2-0.4-2.2c-0.3-1-0.7-2.2-1.1-3.7c-0.5-1.5-1.1-3.1-1.7-4.8c-0.6-1.8-1.3-3.6-2.1-5.5h-19.7c-0.7,1.9-1.5,3.7-2.1,5.4
		c-0.7,1.7-1.4,3.4-2.1,5.1c-1,2.7-1.6,4.5-1.6,5.6c0,0.6,0.2,1.2,0.6,1.6c0.4,0.4,0.9,0.8,1.5,1c0.6,0.3,1.3,0.5,2,0.6
		c0.7,0.1,1.4,0.2,2,0.3v0.7h-15.7v-0.8c1.3-0.1,2.4-0.5,3.3-1c0.9-0.5,1.4-0.9,1.6-1.1c0.3-0.3,0.9-1.2,1.7-2.4
		c0.8-1.3,1.7-3.2,2.9-5.7c1-2.3,2.2-5,3.5-7.9c1.3-2.9,2.6-6,3.9-9.1c1.4-3.1,2.7-6.3,4-9.5c1.3-3.2,2.6-6.1,3.8-8.9l-0.7-1.6
		c0.9-0.4,1.7-0.9,2.4-1.4c0.7-0.5,1.4-1.1,1.9-1.7c0.5-0.6,1-1.2,1.4-1.7c0.4-0.5,0.6-1,0.9-1.3h0.6c1.5,4.1,3,8,4.4,11.6
		c1.4,3.7,2.7,7.2,3.9,10.6c1.3,3.4,2.5,6.7,3.7,9.9c1.2,3.2,2.4,6.3,3.5,9.4c0.5,1.5,1.1,2.8,1.5,3.8c0.5,1,1,2.1,1.6,3.4
		c0.1,0.2,0.3,0.5,0.7,1c0.3,0.5,0.8,1,1.4,1.5c0.6,0.5,1.3,1,2.1,1.4c0.8,0.4,1.8,0.6,3,0.7v0.9H1113.4z M1103.7,734
		c-0.3,0.6-0.7,1.6-1.3,3c-0.6,1.4-1.3,3-2.1,5c-0.8,2-1.8,4.2-2.8,6.7c-1,2.5-2.1,5.2-3.3,8.1h18.4c-0.8-2.2-1.7-4.4-2.6-6.7
		c-0.9-2.2-1.7-4.4-2.5-6.4c-0.8-2-1.6-3.9-2.2-5.6C1104.7,736.4,1104.1,735,1103.7,734z"/>
	<path class="st1" d="M1215.2,727.7c-1.1,0.7-2,1.7-2.5,3.2c-0.3,0.7-0.6,2.1-0.7,4.1c-0.1,2-0.2,4.1-0.3,6.4
		c-0.1,2.1-0.2,4.6-0.3,7.5c-0.1,2.9-0.1,6-0.1,9.3c0,1.4,0,3,0,4.7c0,1.7,0,3.5,0,5.3c0,1.8,0,3.6,0,5.3c0,1.8,0,3.4,0,4.8
		c0,0.2-0.1,0.4-0.2,0.5c-0.1,0.1-0.3,0.2-0.6,0.2c-0.4,0-0.8-0.2-1.3-0.7c-4.2-4.8-8-9.3-11.5-13.3c-3.5-4-6.7-7.9-9.9-11.6
		c-3.1-3.7-6.2-7.3-9.2-10.7c-3-3.5-6.2-7.1-9.5-10.9v31.2c0,2.5,0.1,4.8,0.2,6.8c0.1,2,0.4,3.5,0.9,4.5c0.5,1.1,1.4,2,2.6,2.6
		c1.2,0.6,2.7,1,4.8,1.2v0.7h-18.2V778c1.2-0.2,2.4-0.5,3.5-0.9c1.2-0.5,2.1-1.2,2.8-2.3c0.7-1,1.1-2.6,1.3-4.6s0.3-4.4,0.4-7.2
		c0.1-2.1,0.2-4.6,0.2-7.5c0.1-2.9,0.1-6,0.1-9.3c0-1.4,0-2.6,0-3.5c0-0.9,0-1.8,0-2.7c0-0.9,0-1.8,0-2.7c0-1,0-2.2-0.1-3.6
		c-0.1-1.4-0.5-2.6-1-3.5c-0.5-0.9-1.2-1.6-1.9-2.1c-0.7-0.5-1.5-0.9-2.4-1.1c-0.9-0.2-1.7-0.4-2.5-0.5v-0.7h15l35,40.9v-25.1
		c0-2,0-3.8-0.1-5.6c0-1.8-0.3-3.2-0.7-4.2c-0.5-1.4-1.4-2.5-2.6-3.4c-1.3-0.9-3.1-1.5-5.4-1.8v-0.7h18.3v0.7
		C1217.7,726.5,1216.3,727,1215.2,727.7z"/>
	<path class="st1" d="M1294.6,742.7c-0.6-2.4-1.6-4.6-2.9-6.6c-1.3-2.1-2.8-3.9-4.5-5.4c-1.8-1.5-3.7-2.7-5.9-3.6
		c-2.2-0.9-4.5-1.3-7-1.3c-3.4,0-6.4,0.8-9.1,2.3c-2.7,1.5-4.9,3.5-6.7,6.1c-1.8,2.5-3.2,5.4-4.1,8.5c-1,3.2-1.4,6.4-1.4,9.8
		c0,3.5,0.5,6.9,1.5,10c1,3.1,2.4,5.8,4.3,8.1c1.9,2.3,4.1,4.1,6.8,5.4c2.7,1.3,5.6,2,8.9,2c2.6,0,5-0.5,7.2-1.4s4.2-2.2,6-3.7
		c1.8-1.5,3.2-3.3,4.4-5.3c1.2-2,2-4.1,2.5-6.2h0.9l-0.2,16.2h-0.9c-0.6-0.8-1.2-1.6-1.8-2.3c-0.6-0.7-1.1-1-1.3-1
		c-0.1,0-0.5,0.3-1.3,0.8c-0.8,0.5-1.9,1.1-3.4,1.7s-3.3,1.2-5.4,1.6c-2.1,0.5-4.6,0.7-7.3,0.7c-4.6,0-8.7-0.6-12.4-2
		s-6.8-3.2-9.4-5.5c-2.6-2.4-4.6-5.2-5.9-8.6c-1.4-3.3-2.1-7-2.1-11c0-0.9,0.1-1.9,0.2-3c0.1-1.1,0.3-2.3,0.7-3.6
		c0.3-1.3,0.8-2.6,1.3-4c0.6-1.4,1.3-2.8,2.2-4.2c1-1.7,2.3-3.3,3.8-4.8c1.5-1.5,3.3-2.9,5.4-4c2.1-1.2,4.4-2.1,7-2.8
		c2.6-0.7,5.5-1,8.8-1c3,0,5.5,0.3,7.8,0.8c2.2,0.5,4.1,1.1,5.5,1.8c1.5,0.6,2.6,1.2,3.4,1.8c0.8,0.5,1.2,0.8,1.3,0.8
		c0.1,0,0.3-0.1,0.6-0.3c0.3-0.2,0.6-0.5,0.9-0.8c0.3-0.3,0.6-0.7,1-1.1c0.3-0.4,0.7-0.9,1-1.3h0.8v16.5L1294.6,742.7z"/>
	<path class="st1" d="M1370.7,778.7h-47.4V778c1.2-0.2,2.4-0.5,3.6-1c1.2-0.5,2.2-1.1,2.9-1.8c0.2-0.3,0.5-0.7,0.6-1.3
		c0.2-0.6,0.3-1.2,0.4-2c0.1-0.7,0.2-1.5,0.3-2.3c0.1-0.8,0.1-1.6,0.1-2.4c0-0.7,0-1.6,0-2.8c0-1.2,0-2.5,0.1-3.9c0-1.4,0-2.9,0-4.3
		c0-1.5,0-3,0-4.3v-14.3c0-0.9,0-1.7,0-2.6c0-0.9,0-1.7-0.1-2.5c-0.1-0.8-0.2-1.4-0.3-2c-0.2-0.6-0.4-1.1-0.7-1.4
		c-0.7-0.8-1.6-1.5-2.8-1.9c-1.2-0.5-2.4-0.7-3.6-0.9v-0.7h23.6v0.7c-0.6,0.1-1.4,0.3-2.3,0.4c-0.9,0.2-1.7,0.5-2.5,1
		c-0.8,0.4-1.5,1.1-2,1.9c-0.6,0.8-0.9,1.9-0.9,3.2c-0.1,1.7-0.1,3.3-0.1,4.7c0,1.4,0,2.8-0.1,4.2c0,1.4,0,2.8,0,4.3
		c0,1.5,0,3.1,0,5c0,1.7,0,3.2,0,4.6c0,1.3,0,2.6,0,3.9c0,1.3,0,2.6,0,3.9c0,1.4,0,2.9,0,4.5c0,1.6,0.1,3.1,0.2,4.5
		c0.1,1.4,0.3,2.5,0.8,3.2c0.2,0.2,0.6,0.5,1.2,0.7c0.6,0.2,1.3,0.5,2.1,0.6c0.8,0.2,1.7,0.3,2.7,0.5c1,0.1,2,0.2,3,0.2
		c0.4,0,1,0,1.9,0c0.9,0,1.8-0.1,2.8-0.2c1-0.1,2.1-0.2,3.2-0.3c1.1-0.2,2-0.3,2.9-0.6c2-0.5,3.6-1.3,4.9-2.1
		c1.3-0.9,2.4-1.9,3.4-3.1c0.9-1.2,1.7-2.4,2.4-3.8c0.6-1.4,1.3-2.8,1.8-4.2l0.7,0.2L1370.7,778.7z"/>
	<path class="st1" d="M1449.9,727.7c-1.1,0.7-1.9,1.7-2.5,3.2c-0.2,0.3-0.3,0.9-0.4,1.7c-0.1,0.8-0.2,1.7-0.3,2.7
		c-0.1,1-0.2,2.1-0.2,3.3c0,1.2-0.1,2.3-0.1,3.4c0,2.1-0.1,4.5-0.2,7.1c-0.1,2.6-0.2,5.6-0.3,8.9c-0.1,0.9-0.1,2.1-0.2,3.5
		c-0.1,1.4-0.3,2.9-0.7,4.5c-0.4,1.6-1,3.2-1.9,4.8c-0.9,1.6-2.1,3.1-3.7,4.4c-1.6,1.3-3.6,2.3-6.1,3.1c-2.5,0.8-5.5,1.1-9.1,1.1
		c-3.5,0-6.5-0.4-9-1.1c-2.4-0.7-4.4-1.7-6-3c-1.6-1.3-2.8-2.6-3.7-4.1c-0.9-1.5-1.5-3-1.9-4.4c-0.4-1.4-0.7-2.8-0.7-4
		c-0.1-1.2-0.1-2.1-0.1-2.7c0-1.4,0-3.2,0-5.4s0-4.7,0-7.4v-9.8c0-0.9,0-1.8,0-2.7c0-0.9,0-1.7-0.1-2.5c-0.1-0.8-0.2-1.5-0.3-2.1
		c-0.2-0.6-0.4-1.1-0.7-1.4c-0.7-0.8-1.5-1.4-2.5-1.8c-1-0.4-2.2-0.6-3.4-0.8v-0.7h22v0.7c-0.7,0.1-1.4,0.3-2.2,0.4
		c-0.8,0.2-1.5,0.5-2.1,0.9c-0.6,0.4-1.2,1-1.6,1.7c-0.5,0.7-0.7,1.7-0.7,2.8c-0.1,1.3-0.1,2.4-0.1,3.4c0,1,0,2,0,2.9
		c0,0.9,0,1.9,0,3c0,1,0,2.1,0,3.5c0,1.7,0,3.2,0,4.5c0,1.3,0,2.6,0,3.8c0,1.1,0,2.2,0,3.3c0,1.1,0,2.2,0,3.4c0,2.6,0.5,5,1.2,7.1
		c0.7,2.1,1.8,4,3.1,5.5s3,2.7,4.9,3.5c1.9,0.8,4.1,1.2,6.6,1.2c2.8,0,5.2-0.3,7.1-1c2-0.6,3.6-1.5,4.9-2.7c1.3-1.1,2.3-2.4,3.1-3.9
		c0.8-1.5,1.3-3,1.7-4.7s0.6-3.4,0.7-5.1c0.1-1.7,0.2-3.5,0.2-5.1c0-1.3,0-2.5,0-3.6c0-1.1,0-2.1,0-3c0-1,0-2,0-2.9c0-1,0-2,0-3
		c0-1,0-2,0-3c0-1-0.1-2-0.1-3c-0.1-0.9-0.1-1.8-0.2-2.6c-0.1-0.8-0.3-1.5-0.5-2c-0.5-1.4-1.3-2.5-2.6-3.4c-1.2-0.9-3-1.5-5.3-1.8
		v-0.7h18.3v0.7C1452.4,726.5,1451,727,1449.9,727.7z"/>
	<path class="st1" d="M1527.2,769c-0.5,1.4-1.3,2.7-2.1,3.8c-0.9,1.1-1.9,2-3,2.8c-1.1,0.8-2.2,1.4-3.2,1.7c-1.9,0.7-4,1.1-6.3,1.3
		c-2.3,0.1-4.6,0.2-6.7,0.2h-25.5V778c1.2-0.2,2.4-0.5,3.5-1c1.1-0.5,2-1.1,2.7-1.8c0.2-0.3,0.4-0.7,0.6-1.3c0.2-0.6,0.3-1.2,0.4-2
		c0.1-0.7,0.2-1.5,0.3-2.3c0.1-0.8,0.1-1.6,0.1-2.4c0-0.7,0-1.6,0-2.8c0-1.2,0-2.5,0.1-3.9c0-1.4,0-2.9,0-4.3c0-1.5,0-3,0-4.3
		c0-1.5,0-2.8,0-3.9c0-1.1,0-2.2,0-3.2c0-1.1,0-2.2,0-3.3c0-1.1,0-2.4,0-3.9c0-0.9,0-1.8-0.1-2.7c0-0.9-0.1-1.8-0.3-2.6
		c-0.1-0.8-0.3-1.6-0.4-2.3c-0.2-0.7-0.4-1.1-0.7-1.4c-0.7-0.8-1.5-1.3-2.2-1.6c-0.7-0.3-1.8-0.5-3.1-0.6v-0.7h24.9
		c1.9,0,3.7,0.1,5.4,0.3c1.7,0.2,3.3,0.6,4.9,1.2c2.5,0.9,4.6,2.4,6.2,4.3c1.6,1.9,2.4,4.4,2.4,7.3c0,3.3-1.1,5.9-3.1,7.9
		c-2.1,2-4.8,3.3-8.2,4v0.3c1.8,0.2,3.5,0.6,5.2,1.3c1.7,0.7,3.3,1.6,4.6,2.7c1.4,1.1,2.4,2.5,3.2,4c0.8,1.5,1.2,3.3,1.2,5.3
		C1528,765.9,1527.8,767.5,1527.2,769z M1514.6,732.1c-1.3-1.9-2.8-3.3-4.7-4.1c-2.2-1-5.1-1.5-8.5-1.5c-1,0-2,0.1-2.8,0.2
		c-0.8,0.1-1.5,0.2-1.9,0.4c0,0.3-0.1,0.6-0.2,0.8c0,0.3-0.1,0.6-0.1,0.9c0,0.4,0,0.8-0.1,1.4c0,0.5-0.1,1.3-0.1,2.1
		c0,1.7-0.1,3.6-0.1,5.7c0,2.1,0,4,0,5.9c0,1.8,0,3.4,0,4.7c0,1.3,0,2.1,0,2.4c1.6,0,3,0,4.1,0s2,0,2.7-0.1
		c4.4-0.3,7.8-1.5,10.1-3.8c2.3-2.3,3.4-5.1,3.4-8.4C1516.5,736.2,1515.9,734,1514.6,732.1z M1518.7,760.9c-0.5-1.3-1.1-2.4-1.9-3.5
		c-0.8-1.1-1.8-2-2.9-2.7c-1.1-0.8-2.3-1.4-3.7-1.8c-1.1-0.3-2.2-0.6-3.2-0.7c-1.1-0.1-2.3-0.2-3.7-0.2h-7.2c0,1.6,0,3.2,0,4.7
		c0,1.6,0,3.1,0,4.5c0,1.4,0,2.6,0,3.8c0,1.2,0,2.2,0,3c0.1,1.9,0.1,3.4,0.3,4.6c0.1,1.2,0.5,2.2,1.1,3c0.4,0.5,1.1,1,2,1.4
		c0.9,0.4,2.2,0.6,3.8,0.6c1.4,0,3-0.1,4.7-0.3c1.7-0.2,3.3-0.7,4.9-1.5c2.1-1.1,3.7-2.5,4.8-4.3c1.1-1.8,1.7-4,1.7-6.5
		C1519.4,763.5,1519.2,762.2,1518.7,760.9z"/>
</g>
</svg>
